<svg width="248" height="140" viewBox="0 0 248 140" fill="none" xmlns="http://www.w3.org/2000/svg">
<g clip-path="url(#clip0)">
<path d="M124.065 1.86069C121.021 1.91622 119.464 3.11001 118.712 4.86945C117.258 8.27382 118.82 13.8055 118.453 17.3417C118.276 19.0214 117.095 19.3233 116.209 18.4314C114.925 17.1474 113.46 14.4406 112.539 12.8789C111.252 10.7273 110.22 8.53757 108.821 6.45885C103.272 -1.77619 93.7855 3.01284 92.0303 11.4179C90.6697 17.9525 90.957 26.2674 91.3032 32.8957C91.504 36.7859 91.4729 40.7281 92.7469 44.3928C93.7232 47.1968 96.209 50.0424 99.5602 49.3692C104.49 48.3871 104.514 42.0295 104.566 38.0942C104.598 35.665 103.777 28.5335 107.121 27.8464C112.422 26.7636 115.385 39.8606 116.78 43.0949C117.899 45.6837 119.609 48.3385 122.621 48.6474C133.648 49.7995 131.338 22.2973 131.02 15.9571C130.781 11.2722 130.833 1.72882 124.061 1.85375" fill="#1C3D79"/>
</g>
<path d="M172.778 44.1906C172.164 43.3743 171.495 42.6 170.781 41.8767C160.258 31.2175 140.814 32.3412 128.998 40.2757C118.725 47.1658 114.692 59.2551 116.983 71.242C119.092 82.3302 128.078 93.2899 139.579 95.7002C172.44 102.616 189.794 66.6745 172.778 44.1906Z" fill="#F2C819"/>
<path d="M132.435 50.4867C133.293 49.464 134.341 48.5524 135.602 48.0942C137.068 47.555 138.775 47.6975 140.137 48.4592C141.37 49.1467 143.907 51.8544 142.49 53.358C142.026 53.8508 141.23 53.7726 140.587 53.5505C139.606 53.2213 138.658 52.6656 137.629 52.7462C136.221 52.8583 135.215 54.1038 134.336 55.2134C133.833 55.8537 133.134 56.5577 132.332 56.4005C131.852 56.3062 131.47 55.9088 131.291 55.4566C131.113 55.0045 131.094 54.5049 131.127 54.0158C131.207 52.6441 131.549 51.5435 132.435 50.4867Z" fill="#1D3D78"/>
<path d="M146.874 60.1001C147.276 59.8854 147.493 59.4198 147.664 59.0139C147.901 58.4526 148.172 57.1483 149.011 57.2367C149.886 57.3262 149.969 58.3092 149.903 58.9985C149.748 60.5166 148.893 61.7407 147.42 62.2184C146.302 62.585 144.988 62.5076 143.973 61.8709C143.31 61.4557 142.839 60.8103 142.653 60.0603C142.474 59.3455 142.621 58.3349 143.553 58.2949C144.493 58.2552 144.758 59.2966 145.339 59.7967C145.715 60.1152 146.27 60.3257 146.758 60.1489C146.793 60.1412 146.838 60.1252 146.874 60.1001Z" fill="#1D3D78"/>
<path d="M159.961 48.6524C158.018 45.4824 153.226 44.1025 150.09 47.9928C149.907 48.2232 149.741 48.463 149.592 48.7208C148.94 49.8814 148.21 52.3788 150.156 52.7216C150.436 52.7744 150.727 52.7138 151.002 52.6351C152.039 52.3184 152.778 51.4494 153.766 51.0349C154.887 50.5633 156.179 50.7801 157.177 51.4249C157.968 51.9319 159.038 53.0343 160.065 52.5072C161.333 51.839 160.503 49.5452 159.961 48.6524Z" fill="#1D3D78"/>
<path d="M105.868 42.2344C105.756 42.1782 105.634 42.1305 105.513 42.0741C103.773 41.3265 100.634 41.2078 99.662 43.321C98.1049 46.6932 103.038 48.8743 105.685 49.2572C107.363 49.5039 110.291 50.1672 111.686 48.8292C114.095 46.5173 107.39 42.9312 105.868 42.2344Z" fill="#EF8313"/>
<path d="M111.184 32.5239C110.568 31.1911 110.308 28.9331 111.82 28.0453C114.137 26.6845 117.131 29.652 118.484 31.2362C119.567 32.514 124.123 39.5934 119.584 38.7818C116.678 38.268 113.454 35.8795 111.716 33.4251C111.506 33.1382 111.332 32.835 111.184 32.5239Z" fill="#EF8313"/>
<path d="M125.838 21.7836C125.939 21.0866 126.215 20.439 126.748 19.9573C127.879 18.9259 129.601 19.1215 130.749 20.0163C131.451 20.5553 131.972 21.2986 132.403 22.0741C133.632 24.2582 134.347 27.6774 134.047 30.1537C133.747 32.6474 131.916 31.9932 130.473 30.7562C128.585 29.1285 126.918 26.9215 126.135 24.5504C125.872 23.7191 125.703 22.7071 125.838 21.7836Z" fill="#EF8313"/>
<path d="M143.976 18.0615C144.421 16.7979 145.731 15.6409 147.176 15.4599C149.979 15.1214 151.24 18.1994 151.197 20.3425C151.154 22.5119 150.2 24.862 149.164 26.7805C147.988 28.9397 145.973 30.1964 144.726 27.4952C143.847 25.6025 143.267 22.9053 143.43 20.8449C143.493 19.9803 143.657 18.9703 143.976 18.0615Z" fill="#EF8313"/>
<path d="M166.435 18.1992C162.07 19.1001 161.067 25.7026 161.648 28.925C162.028 31.0205 163.499 31.4093 165.179 30.203C166.752 29.0633 168.034 27.4153 169.034 25.8194C170.098 24.1119 170.948 21.9685 170.29 20.0479C169.818 18.6322 167.973 17.8812 166.435 18.1992Z" fill="#EF8313"/>
<path d="M175.562 37.3655C174.987 39.1326 176.313 39.9369 177.926 39.7438C181.036 39.3802 186.464 37.0956 186.941 33.4784C187.137 32.0055 186.232 30.6983 184.795 30.3194C182.846 29.7926 181.16 30.6311 179.693 31.7654C177.991 33.0848 176.234 35.304 175.562 37.3655Z" fill="#EF8313"/>
<path d="M191.54 78.7754C190.766 77.8186 189.624 77.3146 188.532 76.9434C187.427 76.5715 186.312 76.2798 185.187 76.0806C184.375 75.9405 183.402 75.9227 183.051 76.6432C182.756 77.2424 183.071 78.0584 183.449 78.7101C184.584 80.6776 186.318 82.3029 188.277 83.2387C188.738 83.4604 189.225 83.6461 189.703 83.6391C191.882 83.5936 193.163 80.7736 191.54 78.7754Z" fill="#EF8313"/>
<g clip-path="url(#clip1)">
<path d="M180.546 105.3C177.362 105.401 174.188 104.879 171.207 103.764C168.226 102.649 165.496 100.963 163.173 98.8009C160.85 96.6393 158.979 94.045 157.668 91.1663C156.357 88.2876 155.631 85.1809 155.531 82.0238C154.659 51.7736 202.969 48.0378 204.014 80.5113C204.115 83.6674 203.587 86.8123 202.462 89.7663C201.336 92.7203 199.635 95.4256 197.455 97.7275C195.274 100.029 192.658 101.883 189.755 103.182C186.852 104.482 183.719 105.201 180.535 105.3H180.546ZM178.134 67.7075C173.299 69.157 170.498 76.1103 172.151 83.2878C173.744 90.4127 179.024 95.1463 183.922 93.6933C188.694 92.2438 191.431 85.1154 189.778 77.938C188.181 70.7955 182.965 66.2545 178.134 67.7075Z" fill="#1C3D79"/>
</g>
<path d="M189.982 42.5456C191.622 42.7963 193.337 44.08 193.762 45.6714C194.24 47.4307 192.877 48.9103 191.965 50.0947C191.077 51.2381 188.675 54.5248 186.336 55.241C185.704 55.4234 184.99 55.3469 184.352 55.0282C183.713 54.7095 183.201 54.1747 182.928 53.5408C182.349 52.1465 183.153 50.9423 183.775 49.91C184.602 48.5359 185.467 47.1731 186.175 45.7256C186.967 44.1223 187.579 42.1801 189.982 42.5456Z" fill="#EF8215"/>
<g clip-path="url(#clip2)">
<path d="M26.0158 92.3803C24.5028 94.0657 20.8006 97.2255 18.8744 94.5537C18.1162 93.5154 17.9933 92.1311 17.9079 90.8333C17.5254 84.9406 17.4252 79.0398 17.6073 73.131C17.6449 72.0062 17.6961 70.8537 18.106 69.8085C18.5158 68.7633 19.1784 68.1404 19.94 67.9016C20.9304 67.5936 22.1292 67.8531 23.3348 68.2857C27.8805 69.9227 30.097 77.284 30.097 81.5547C30.0976 85.5524 28.6377 89.4087 25.9987 92.3803H26.0158ZM5.22355 58.5157C0.630002 60.1839 -1.13228 64.6726 1.54871 69.1371C3.78913 72.8748 4.67711 75.8097 4.79664 80.3192C4.93667 85.6143 3.8711 91.1101 4.54733 96.3637C5.41139 103.15 11.7365 105.424 18.731 105.31C32.5731 105.089 45.1891 97.3501 45.1891 82.2261C45.1891 62.648 21.6237 52.5423 5.20989 58.5157" fill="#1C3D79"/>
</g>
<g clip-path="url(#clip3)">
<path d="M88.3158 45.3523C88.3372 45.6223 88.3031 45.8937 88.2156 46.1506C88.1281 46.4074 87.9889 46.6446 87.8062 46.848C86.7777 48.0116 85.4769 48.9147 84.0146 49.4802C81.1246 50.5994 77.6003 50.6447 74.7744 49.3338C73.5211 48.7403 72.3607 47.9749 71.3284 47.0607C70.4768 46.3181 69.8816 45.3872 68.556 45.6347C67.9222 45.7664 67.3566 46.1135 66.9595 46.6144C64.2798 49.8916 58.799 50.8155 54.7188 50.181C39.3564 47.7928 41.4446 26.0133 42.054 15.1985C42.2464 11.7783 42.8914 8.08973 44.6304 5.08794C48.2759 -1.26428 58.9665 -0.00917286 60.7982 7.03335C61.1627 8.46748 61.3009 9.94771 61.208 11.4227L59.9322 33.0384C59.8075 35.1721 59.9322 37.7903 61.9421 38.7352C64.4864 39.931 66.6246 37.5881 67.5012 35.5242C71.0647 27.108 66.0295 17.625 69.5859 9.29602C70.1041 7.98795 71.1174 6.92542 72.4153 6.3291C74.3325 5.50631 76.6916 5.55163 78.6551 6.16872C88.0593 9.11822 82.4217 25.961 81.8908 32.4631C81.6271 35.6671 81.2066 39.4115 83.391 42.096C83.9469 42.7933 84.4601 43.2954 85.326 43.4557C86.0922 43.5952 86.7514 43.257 87.4392 43.78C87.6899 43.9664 87.8976 44.2025 88.0487 44.4729C88.1997 44.7432 88.2908 45.0417 88.3158 45.3489" fill="#1C3D79"/>
</g>
<g clip-path="url(#clip4)">
<path d="M129.802 61.0553C129.583 61.2072 129.342 61.324 129.087 61.4016C128.204 61.6439 127.376 61.0103 126.671 60.5671C120.854 56.9663 112.668 56.9213 106.522 59.5631C99.962 62.3745 95.0377 68.2812 92.94 75.1298C92.4612 76.7083 92.1447 78.3327 91.9955 79.977C90.7293 94.2419 102.296 105.823 115.464 106.187C121.281 106.346 127.718 104.258 130.887 98.9818C132.027 97.0845 132.687 93.6706 129.895 92.8777C128.026 92.3445 126.23 93.7433 124.44 94.512C118.947 96.9044 111.566 93.9441 108.401 89.0484C106.822 86.5071 106.006 83.5566 106.053 80.5552C106.053 76.4731 107.586 72.2456 110.803 69.7666C114.02 67.2875 119.04 67.156 121.89 70.0436C123.03 71.1931 123.776 72.7234 125.042 73.724C125.79 74.299 126.675 74.6654 127.606 74.7869C128.538 74.9084 129.485 74.7807 130.353 74.4165C132.625 73.4297 133.95 70.8087 134.562 68.5305C135.13 66.415 135.5 62.8246 133.731 61.1211C133.407 60.8199 133.023 60.5915 132.606 60.4506C132.188 60.3098 131.746 60.2599 131.308 60.304C130.716 60.3732 130.281 60.7506 129.802 61.0553Z" fill="#1C3D79"/>
</g>
<path d="M113.907 82.2592C114.307 80.7491 113.15 80.1428 111.808 80.3796C109.221 80.8389 104.788 83.0156 104.567 86.072C104.474 87.312 105.301 88.3628 106.522 88.6122C108.178 88.9545 109.772 87.7191 110.946 86.6891C112.301 85.5161 113.446 84.0212 113.907 82.2592Z" fill="#EF8313"/>
<path d="M98.086 70.0895C101.08 72.5318 106.616 69.6204 108.476 67.4659C109.688 66.0695 109.139 64.8613 107.407 64.3941C105.78 63.9565 103.962 63.9942 102.34 64.1957C100.604 64.4111 98.1624 64.9976 97.2192 66.4815C96.5342 67.5798 97.0339 69.2327 98.086 70.0895Z" fill="#EF8313"/>
<g clip-path="url(#clip5)">
<path d="M17.2634 14.7825C17.1033 14.9192 16.955 15.0692 16.8201 15.231C15.304 17.0316 16.0688 20.232 18.2312 21.1493C22.8066 23.0893 31.7609 17.4393 32.4378 25.5151C32.5564 26.5839 32.262 27.6576 31.6154 28.515C28.9893 31.746 22.8776 29.6667 19.3784 30.6112C16.4377 31.4062 16.4343 34.2227 16.7998 36.747C17.2465 39.8319 17.974 43.0051 17.1179 46.0934C15.9876 50.1704 11.5781 50.68 7.88937 50.2349C3.67276 49.7253 1.51032 47.0617 1.04331 42.8998C0.339411 36.6349 0.24804 28.6203 0.308954 22.2127C0.359715 16.7768 -0.303571 10.0601 3.17868 5.45311C4.87074 3.2074 7.43252 2.30028 10.1635 2.15758C15.4021 1.88239 20.6543 1.70232 25.8793 1.26745C29.4767 0.96168 34.4682 0.258408 37.3481 3.04092C39.0402 4.6683 39.2331 7.37607 38.5461 9.62179C37.9911 11.4224 36.8066 12.8018 34.986 13.3862C33.2939 13.9298 31.4699 13.7871 29.7305 13.6206C26.3463 13.2808 20.0891 12.3397 17.2634 14.7825Z" fill="#1C3D79"/>
</g>
<g clip-path="url(#clip6)">
<path d="M86.567 82.9052C84.2591 76.1383 81.5337 67.5038 76.9357 61.8546C73.7252 57.9266 68.535 56.7874 63.4303 58.4444C57.4589 60.3869 55.2544 67.2645 53.3388 72.5174C50.3412 80.6011 48.0053 88.9154 46.3543 97.3782C44.7597 105.234 51.013 107.33 56.6349 105.698C60.6907 104.52 62.428 100.435 63.4517 96.714C64.1652 94.0858 64.9749 87.2296 67.7323 86.8046C69.8976 86.4761 71.1426 88.4116 71.7169 90.1756C73.6217 96.0391 74.4529 104.695 82.1402 105.888C89.1853 106.984 92.2674 101.292 90.5337 95.3392C89.3138 91.154 87.9618 87.0189 86.5599 82.9016L86.567 82.9052ZM73.1544 75.6741C73.0296 76.9096 72.6729 77.5131 71.485 78.2094C69.9404 79.1307 67.5361 79.1307 65.8346 78.488C62.0534 77.031 63.6943 72.2674 65.3744 70.0427C66.2484 68.8893 67.4149 68.0609 68.8203 68.3965C71.749 69.1107 73.3934 73.2994 73.1544 75.6741Z" fill="#1C3D79"/>
</g>
<g clip-path="url(#clip7)">
<path d="M150.087 74.4342C146.96 72.5911 142.417 72.6709 139.707 75.1945C136.698 77.9737 137.197 82.826 137.29 86.4549C137.391 89.9688 137.426 99.8556 140.55 104.596C141.409 105.856 142.729 106.722 144.223 107.006C145.716 107.29 147.261 106.968 148.519 106.11C151.248 104.194 151.366 100.68 151.582 97.7632C151.871 93.882 152.081 89.9688 152.667 86.1131C153.303 81.8326 154.668 77.1399 150.087 74.4342Z" fill="#1C3D79"/>
</g>
<g clip-path="url(#clip8)">
<path d="M240.174 57.7045C237.063 57.7621 235.471 59.001 234.703 60.8268C233.216 64.3596 234.812 70.1001 234.437 73.7697C234.257 75.5128 233.05 75.8261 232.144 74.9005C230.831 73.5681 229.334 70.7591 228.393 69.1385C227.076 66.9057 226.022 64.6333 224.592 62.4762C218.919 53.9304 209.222 58.9001 207.428 67.6224C206.037 74.4036 206.331 83.0322 206.685 89.9106C206.89 93.9476 206.858 98.0387 208.16 101.842C209.158 104.751 211.699 107.704 215.125 107.006C220.165 105.987 220.189 99.3891 220.242 95.3053C220.274 92.7844 219.436 85.3838 222.854 84.6708C228.272 83.5472 231.302 97.1383 232.728 100.495C233.871 103.181 235.619 105.936 238.698 106.257C249.97 107.452 247.609 78.9123 247.284 72.3328C247.04 67.4711 247.093 57.5677 240.17 57.6973" fill="#1C3D79"/>
</g>
<path d="M176.346 126.762C176.507 126.923 176.829 127.084 176.991 127.246C177.313 127.407 177.474 127.729 177.474 128.052C177.474 128.696 176.668 129.019 176.185 129.019C174.572 129.019 172.799 128.374 171.187 128.052C169.253 127.568 167.641 127.246 165.706 126.762C157.807 125.311 149.747 124.666 141.687 124.666C130.403 124.828 119.28 126.44 108.318 129.18C102.837 130.47 97.3558 132.082 92.036 133.855C86.8775 135.467 82.0414 137.563 76.7216 138.852C73.6588 139.497 70.2735 140.142 67.2106 138.852C64.4701 137.563 62.5357 134.661 63.3417 131.598C63.6641 130.147 64.7926 129.019 66.0822 128.213C67.2106 127.568 68.339 126.923 69.6287 126.44C74.3036 124.666 79.1397 123.538 83.9758 122.732C93.9705 120.797 104.288 119.83 114.443 119.024C126.534 118.218 138.302 118.702 150.231 120.314C159.097 121.442 167.963 123.377 176.346 126.762Z" fill="#F68628"/>
<defs>
<clipPath id="clip0">
<rect width="40.4229" height="47.6092" fill="white" transform="translate(91.0156 1.86084)"/>
</clipPath>
<clipPath id="clip1">
<rect width="48.5075" height="47.6092" fill="white" transform="translate(155.532 57.7043)"/>
</clipPath>
<clipPath id="clip2">
<rect width="44.9143" height="48.5075" fill="white" transform="translate(0.288086 56.8062)"/>
</clipPath>
<clipPath id="clip3">
<rect width="46.7109" height="49.4057" fill="white" transform="translate(41.6084 0.962646)"/>
</clipPath>
<clipPath id="clip4">
<rect width="43.1177" height="48.5075" fill="white" transform="translate(91.9131 57.7039)"/>
</clipPath>
<clipPath id="clip5">
<rect width="38.6263" height="49.4057" fill="white" transform="translate(0.288086 0.962646)"/>
</clipPath>
<clipPath id="clip6">
<rect width="44.9143" height="48.5075" fill="white" transform="translate(46.1016 57.7039)"/>
</clipPath>
<clipPath id="clip7">
<rect width="16.1691" height="52.9989" fill="white" transform="translate(137.197 54.1111)"/>
</clipPath>
<clipPath id="clip8">
<rect width="41.3212" height="49.4057" fill="white" transform="translate(206.391 57.7043)"/>
</clipPath>
</defs>
</svg>
