<svg width="303" height="107" viewBox="0 0 303 107" fill="none" xmlns="http://www.w3.org/2000/svg">
<g clip-path="url(#clip0)">
<path d="M198.554 96.0352C198.723 96.2016 198.893 96.2016 199.062 96.368C199.231 96.5344 199.401 96.7008 199.401 97.0336C199.401 97.5328 198.723 97.6992 198.385 97.6992C197.03 97.6992 195.505 97.2 194.15 96.8672C192.626 96.5344 191.271 96.2016 189.577 95.8688C182.971 94.7039 176.196 94.2047 169.59 94.0383C160.105 94.2047 150.79 95.536 141.643 97.6992C137.07 98.8641 132.497 100.195 128.093 101.527C123.858 102.858 119.793 104.522 115.39 105.52C112.849 106.186 109.97 106.519 107.429 105.52C105.227 104.522 103.533 102.026 104.211 99.5297C104.549 98.3648 105.396 97.3664 106.582 96.7008C107.429 96.0352 108.615 95.7024 109.631 95.3696C113.526 93.8719 117.592 93.0399 121.657 92.2079C130.125 90.7102 138.594 89.8782 147.063 89.2126C157.056 88.547 167.05 88.8798 176.874 90.3774C183.987 91.5422 191.44 93.2063 198.554 96.0352Z" fill="#EE8514"/>
<path d="M283.75 64.751C283.92 65.2503 284.089 65.7495 283.92 66.2487C283.581 67.4135 282.395 67.9127 281.379 67.9127C280.702 67.9127 280.024 67.5799 279.516 67.2471C277.822 66.4151 275.79 64.5846 274.943 62.7542C274.096 61.0901 275.451 60.7573 276.975 60.9237C278.838 61.0901 280.871 61.9221 282.395 63.087C282.903 63.5862 283.412 64.0854 283.75 64.751Z" fill="#EE8514"/>
<path d="M271.725 23.649C271.217 22.9834 270.539 22.3178 270.031 21.8185C260.885 13.1655 244.286 14.6631 234.631 21.6521C226.162 27.6427 222.944 37.9598 225.315 47.7777C227.348 56.93 235.309 65.9159 245.133 67.5799C273.08 72.5721 286.799 41.9536 271.725 23.649Z" fill="#F1C619"/>
<path d="M237.68 29.9724C238.358 29.1404 239.205 28.3083 240.221 27.8091C241.407 27.3099 242.931 27.3099 244.117 27.9755C245.133 28.4747 247.335 30.638 246.319 31.9693C245.98 32.4685 245.302 32.3021 244.625 32.1357C243.778 31.9693 242.931 31.47 242.084 31.47C240.899 31.6364 240.052 32.6349 239.374 33.6333C239.035 34.1325 238.358 34.7981 237.68 34.6317C237.342 34.6317 237.003 34.2989 236.833 33.7997C236.664 33.4669 236.664 32.9677 236.664 32.6349C236.664 31.8028 237.003 30.9708 237.68 29.9724Z" fill="#1D3D78"/>
<path d="M250.214 37.627C250.552 37.4606 250.722 36.9614 250.891 36.6286C251.061 36.1294 251.23 35.1309 251.907 35.1309C252.585 35.1309 252.754 35.963 252.754 36.6286C252.585 37.9598 251.907 38.9583 250.722 39.4575C249.706 39.7903 248.689 39.7903 247.842 39.2911C247.334 38.9583 246.826 38.459 246.657 37.7934C246.487 37.1278 246.657 36.2958 247.334 36.2958C248.181 36.2958 248.351 37.1278 248.859 37.4606C249.197 37.7934 249.706 37.9598 250.214 37.627C250.044 37.7934 250.214 37.627 250.214 37.627Z" fill="#1D3D78"/>
<path d="M260.885 27.8091C259.191 25.1466 255.126 24.1482 252.416 27.4763C252.247 27.6427 252.077 27.8091 252.077 28.1419C251.569 29.1404 251.061 31.3036 252.586 31.47C252.755 31.47 253.094 31.47 253.263 31.3036C254.11 30.9708 254.788 30.3052 255.634 29.9724C256.651 29.4732 257.667 29.6396 258.514 30.1388C259.191 30.4716 260.208 31.47 261.054 30.9708C262.24 30.4716 261.393 28.4747 260.885 27.8091Z" fill="#1D3D78"/>
<path d="M16.812 45.1152C16.6426 45.2816 16.4732 45.4481 16.3038 45.6145C14.7794 47.2785 15.6263 50.2738 17.6589 51.1058C22.0627 52.9363 30.7009 47.6113 31.209 55.2659C31.3784 56.2644 31.0397 57.2628 30.3622 58.0948C27.8215 61.0901 22.0627 59.0933 18.6751 60.0917C15.7957 60.7573 15.7957 63.4198 16.1345 65.9159C16.6426 68.7448 17.3201 71.74 16.4732 74.7353C15.4569 78.5626 11.2225 79.0619 7.66558 78.5626C3.60052 78.0634 1.56799 75.5674 1.05986 71.74C0.551729 65.7495 0.551729 58.2612 0.551729 52.1043C0.551729 46.9457 0.0435971 40.6223 3.26177 36.4622C4.95554 34.2989 7.32683 33.4669 10.0369 33.3005C15.1182 32.9677 20.0301 32.8013 25.1115 32.4685C28.499 32.1357 33.411 31.47 36.121 34.1325C37.8148 35.6302 37.9841 38.1262 37.3066 40.2895C36.7985 41.9535 35.6129 43.2848 33.9191 43.784C32.2253 44.2832 30.5315 44.1168 28.8378 43.9504C25.4502 43.784 19.522 42.952 16.812 45.1152Z" fill="white"/>
<path d="M139.95 45.1152C139.78 45.2816 139.611 45.448 139.442 45.6145C137.917 47.2785 138.764 50.2738 140.797 51.1058C145.2 52.9363 153.839 47.6113 154.347 55.2659C154.516 56.2644 154.177 57.2628 153.5 58.0948C150.959 61.0901 145.2 59.0933 141.813 60.0917C138.933 60.7573 138.933 63.4198 139.272 65.9159C139.78 68.7447 140.458 71.74 139.611 74.7353C138.595 78.5626 134.36 79.0619 130.803 78.5626C126.738 78.0634 124.706 75.5674 124.198 71.74C123.52 65.9159 123.351 58.2612 123.52 52.2707C123.52 47.1121 123.012 40.7887 126.23 36.6286C127.924 34.4653 130.295 33.6333 133.005 33.4669C138.087 33.1341 142.998 32.9677 148.08 32.6349C151.467 32.3021 156.379 31.6364 159.089 34.2989C160.783 35.7966 160.952 38.2926 160.275 40.4559C159.767 42.1199 158.581 43.4512 156.887 43.9504C155.194 44.4496 153.5 44.2832 151.806 44.1168C148.588 43.784 142.66 42.952 139.95 45.1152Z" fill="white"/>
<path d="M107.937 35.7966C108.615 34.1325 110.139 33.1341 113.019 32.9677C119.455 32.8013 119.455 41.7871 119.625 46.1137C119.963 51.9378 122.165 77.5642 111.664 76.5658C108.784 76.233 107.26 73.7369 106.074 71.4072C104.719 68.4119 102.009 56.2644 96.9279 57.2628C93.7098 57.9284 94.5567 64.5846 94.5567 66.7479C94.5567 70.4088 94.5567 76.3994 89.8141 77.2314C86.5959 77.897 84.2246 75.2346 83.3777 72.5721C82.1921 69.0776 82.1921 65.4166 82.0227 61.9221C81.684 55.7652 81.3452 47.9441 82.7002 41.9535C84.394 34.1325 93.371 29.6396 98.6217 37.2942C99.9767 39.2911 100.993 41.2879 102.179 43.2848C103.026 44.7824 104.381 47.2785 105.736 48.4433C106.582 49.2754 107.768 48.9426 107.937 47.4449C107.937 44.1168 106.413 38.9583 107.937 35.7966Z" fill="white"/>
<path d="M180.431 41.7871C179.415 42.6192 179.753 44.4496 179.753 45.7809C179.753 47.4449 179.753 49.109 179.753 50.9394C179.753 51.4386 179.753 52.4371 179.753 53.1027C179.923 54.2675 180.939 54.9331 182.125 54.6003C185.512 53.6019 188.222 51.2722 188.222 47.6113C188.222 44.1168 185.343 41.7871 181.955 41.4543C181.278 41.2879 180.77 41.4543 180.431 41.7871ZM201.264 48.2769C201.264 50.4402 200.925 52.6035 200.079 54.6003C199.232 56.7636 197.877 58.2612 196.522 60.0917C195.675 61.2565 196.352 62.9206 197.03 64.0854C198.385 66.4151 200.587 69.4104 200.417 72.2393C200.079 76.7322 193.981 78.729 190.932 75.7338C188.053 73.0713 186.867 68.7447 185.173 65.2502C184.665 64.4182 183.48 60.5909 181.955 61.0901C181.616 61.0901 181.108 61.4229 180.939 61.7557C180.77 62.0886 180.77 62.4214 180.77 62.7542C180.77 67.9127 182.463 75.0681 176.196 76.8986C173.317 77.7306 169.929 77.3978 168.066 75.0681C167.727 74.5689 167.389 74.0697 167.219 73.4041C166.034 70.4088 166.711 66.5815 166.711 63.4198C166.711 59.2597 167.05 55.2659 167.219 51.1058C167.219 49.109 167.727 45.4481 165.864 43.9504C165.356 43.6176 164.848 43.4512 164.34 43.1184C163.154 42.2864 163.154 40.6223 163.154 39.1247C163.154 37.9598 163.324 36.9614 163.662 35.7966C164.34 33.7997 166.203 33.1341 168.405 32.8013C171.962 32.4685 175.519 32.1357 179.076 32.1357C183.31 32.1357 188.392 32.1357 192.457 33.7997C198.385 36.4622 201.264 42.4528 201.264 48.2769Z" fill="white"/>
<path d="M251.23 74.2361C252.924 76.7322 256.65 77.5642 259.36 75.7338C262.07 73.9033 262.24 70.2424 262.409 67.4135C262.748 63.5862 262.917 59.5925 263.595 55.7652C264.272 51.4386 265.627 46.7793 260.885 44.1168C257.667 42.2864 253.093 42.2864 250.214 44.7824C247.165 47.6113 247.673 52.4371 247.673 56.098C248.012 59.5925 248.012 69.5768 251.23 74.2361Z" fill="white"/>
<path d="M295.1 47.2785C291.712 50.2738 292.22 55.2659 291.881 59.4261C291.712 63.919 292.728 72.2393 289.51 75.9002C286.461 79.5611 280.533 77.3978 279.348 73.2377C278.331 70.076 278.501 66.0823 278.501 62.9206C278.331 59.7589 278.331 56.7636 278.501 53.6019C278.501 51.4386 278.839 48.6097 277.315 46.9457C275.452 44.7824 272.064 45.6145 269.524 45.1152C264.442 44.1168 264.442 37.7934 268.677 35.6302C271.726 34.1325 275.452 34.6317 278.839 34.6317C282.058 34.6317 285.276 34.9645 288.494 34.9645C291.204 34.9645 295.1 34.7981 297.81 35.6302C300.012 36.2958 302.383 37.9598 302.722 40.2895C303.23 45.1152 297.471 45.2816 295.1 47.2785Z" fill="white"/>
<path d="M245.302 72.5721C245.302 73.0713 245.132 73.5705 244.794 73.9033C243.777 74.9018 242.761 75.7338 241.406 76.233C238.865 77.2314 235.647 77.2314 233.107 76.0666C231.921 75.5674 230.905 74.9017 230.058 74.0697C229.38 73.4041 228.703 72.5721 227.517 72.7385C227.009 72.9049 226.501 73.2377 226.162 73.5705C223.791 76.5658 218.879 77.3978 215.322 76.7322C201.602 74.5689 203.466 55.0996 204.143 45.4481C204.312 42.4528 204.821 39.1247 206.514 36.4622C209.733 30.8044 219.218 31.9693 220.911 38.2926C221.25 39.6239 221.42 40.9551 221.25 42.2864C220.911 48.7762 220.573 55.0996 220.065 61.5893C219.895 63.4198 220.065 65.9159 221.928 66.7479C224.13 67.7463 226.162 65.7495 226.84 63.919C230.058 56.4308 225.485 47.9441 228.703 40.4559C229.211 39.2911 230.058 38.2926 231.243 37.7934C232.937 37.1278 234.97 37.1278 236.833 37.627C245.132 40.2895 240.22 55.266 239.712 61.0901C239.543 63.919 239.035 67.2471 241.067 69.7432C241.576 70.4088 242.084 70.7416 242.761 70.908C243.439 71.0744 243.947 70.7416 244.624 71.2408C244.963 71.5736 245.302 72.0729 245.302 72.5721Z" fill="white"/>
<path d="M80.4981 72.5721C80.4981 73.0713 80.3287 73.5705 79.99 73.9033C78.9737 74.9018 77.9575 75.7338 76.6024 76.233C74.0618 77.2314 70.8436 77.2314 68.3029 76.0666C67.1173 75.5674 66.101 74.9017 65.2542 74.0697C64.5766 73.4041 63.8991 72.5721 62.7135 72.7385C62.2054 72.9049 61.6972 73.2377 61.3585 73.5705C58.9872 76.5658 54.0752 77.3978 50.5183 76.7322C36.7987 74.5689 38.6619 55.0996 39.3394 45.4481C39.5088 42.4528 40.0169 39.1247 41.7107 36.4622C44.9289 30.8044 54.414 31.9693 56.1078 38.2926C56.4465 39.6239 56.6159 40.9551 56.4465 42.2864C56.1078 48.7762 55.769 55.0996 55.2609 61.5893C55.0915 63.4198 55.2609 65.9159 57.124 66.7479C59.3259 67.7463 61.3585 65.7495 62.036 63.919C65.2542 56.4308 60.681 47.9441 63.8991 40.4559C64.4073 39.2911 65.2542 38.2926 66.4398 37.7934C68.1336 37.1278 70.1661 37.1278 72.0293 37.627C80.3287 40.2895 75.4168 55.266 74.9087 61.0901C74.7393 63.919 74.2312 67.2471 76.2637 69.7432C76.7718 70.4088 77.28 70.7416 77.9575 70.908C78.635 71.0744 79.1431 70.7416 79.8206 71.2408C80.1594 71.5736 80.4981 72.0729 80.4981 72.5721Z" fill="white"/>
<path d="M214.984 23.8154C214.814 23.8154 214.814 23.8154 214.645 23.649C213.12 23.1498 210.41 22.9834 209.733 24.8138C208.547 27.6427 212.782 29.3068 214.984 29.6396C216.339 29.806 218.879 30.3052 220.065 29.1404C222.097 27.1435 216.169 24.481 214.984 23.8154Z" fill="#EE8514"/>
<path d="M219.218 15.6616C218.71 14.4967 218.371 12.6663 219.556 11.8342C221.42 10.6694 224.13 12.9991 225.315 14.3303C226.332 15.3287 230.397 21.1529 226.501 20.6537C223.96 20.3209 221.25 18.324 219.726 16.3272C219.387 16.1608 219.218 15.828 219.218 15.6616Z" fill="#EE8514"/>
<path d="M231.243 6.17647C231.243 5.51085 231.582 5.01164 231.921 4.67883C232.937 3.8468 234.292 3.8468 235.308 4.67883C235.986 5.17804 236.324 5.67726 236.833 6.34288C238.018 8.17333 238.696 11.0022 238.526 12.9991C238.357 15.1623 236.833 14.6631 235.478 13.6647C233.784 12.3335 232.429 10.503 231.582 8.67255C231.413 7.84052 231.243 7.0085 231.243 6.17647Z" fill="#EE8514"/>
<path d="M272.572 73.9033C272.572 74.4025 272.402 74.7353 272.064 75.0681C271.386 75.7338 270.2 75.7338 269.523 75.2345C269.015 74.9017 268.676 74.4025 268.337 73.9033C267.49 72.5721 266.813 70.4088 266.982 68.7447C267.152 67.0807 268.337 67.4135 269.353 68.2455C270.708 69.244 271.894 70.5752 272.402 72.0728C272.572 72.5721 272.741 73.2377 272.572 73.9033Z" fill="#EE8514"/>
<path d="M246.657 2.68196C246.996 1.68353 248.012 0.685103 249.367 0.352293C251.738 0.0194827 252.924 2.51556 252.924 4.34601C252.924 6.17647 252.247 8.17333 251.4 9.83738C250.383 11.6678 248.859 12.8327 247.673 10.503C246.827 9.00535 246.318 6.67568 246.318 5.01163C246.149 4.17961 246.318 3.34758 246.657 2.68196Z" fill="#EE8514"/>
<path d="M265.628 2.18276C261.901 3.01478 261.224 8.67255 261.901 11.335C262.24 12.9991 263.595 13.3319 264.95 12.3335C266.305 11.335 267.321 10.0038 268.168 8.50615C269.015 7.00851 269.693 5.17805 269.015 3.6804C268.507 2.34916 266.983 1.84995 265.628 2.18276Z" fill="#EE8514"/>
<path d="M209.056 47.2785C211.597 49.2754 216.339 46.6129 217.864 44.7824C218.88 43.6176 218.372 42.6192 216.847 42.2864C215.492 41.9535 213.968 42.12 212.613 42.2864C211.088 42.4528 209.056 43.1184 208.378 44.2832C207.701 45.2816 208.209 46.6129 209.056 47.2785Z" fill="#EE8514"/>
<path d="M273.927 17.9912C273.419 19.4889 274.604 20.1545 275.959 19.9881C278.669 19.6553 283.073 17.492 283.412 14.4967C283.581 13.3319 282.734 12.167 281.549 11.8342C279.855 11.5014 278.5 12.167 277.314 13.1655C275.79 14.3303 274.435 16.1608 273.927 17.9912Z" fill="#EE8514"/>
<path d="M222.775 57.0964C223.114 55.7652 222.097 55.4324 220.912 55.5988C218.71 56.098 214.983 57.9284 214.983 60.5909C214.983 61.5893 215.661 62.4214 216.677 62.5878C218.032 62.7542 219.387 61.7557 220.403 60.9237C221.589 59.9253 222.436 58.594 222.775 57.0964Z" fill="#EE8514"/>
<path d="M286.291 25.1466C285.275 25.1466 284.259 25.4795 283.412 25.9787C282.565 26.4779 281.718 26.9771 281.041 27.6427C280.532 28.1419 279.855 28.6412 280.194 29.3068C280.363 29.806 281.041 30.1388 281.718 30.3052C283.581 30.638 285.614 30.4716 287.308 29.806C287.646 29.6396 288.154 29.4732 288.324 29.1404C289.509 27.6427 288.324 25.313 286.291 25.1466Z" fill="#EE8514"/>
</g>
<defs>
<clipPath id="clip0">
<rect width="302" height="106" fill="white" transform="translate(0.551758 0.352295)"/>
</clipPath>
</defs>
</svg>
