<svg width="186" height="138" viewBox="0 0 186 138" fill="none" xmlns="http://www.w3.org/2000/svg">
<g clip-path="url(#clip0)">
<path fill-rule="evenodd" clip-rule="evenodd" d="M75.0395 79.3713C68.2925 84.3498 58.5125 87 50.09 87C38.2839 87 27.6559 82.6373 19.6126 75.3714C18.9807 74.8006 19.5433 74.0218 20.3056 74.4622C28.9849 79.514 39.7189 82.5557 50.8034 82.5557C58.2801 82.5557 66.5028 81.0022 74.0651 77.7934C75.1985 77.3122 76.1565 78.5477 75.0395 79.3713Z" fill="#FF9900"/>
<path fill-rule="evenodd" clip-rule="evenodd" d="M77.8484 76.1665C76.9841 75.0615 72.1451 75.6405 69.9681 75.9014C69.3077 75.9789 69.2058 75.404 69.801 74.9881C73.6616 72.2767 79.9927 73.0595 80.7265 73.9647C81.4685 74.8821 80.5308 81.2265 76.9148 84.2559C76.3563 84.7207 75.8304 84.472 76.075 83.8563C76.8863 81.8258 78.7126 77.2714 77.8484 76.1665Z" fill="#FF9900"/>
<path fill-rule="evenodd" clip-rule="evenodd" d="M70.123 55.8246V53.1865C70.123 52.7869 70.4288 52.5178 70.7916 52.5178H82.6059C82.985 52.5178 83.2867 52.791 83.2867 53.1824V55.4413C83.2826 55.8205 82.9646 56.3138 82.398 57.1008L76.2788 65.8385C78.5496 65.7855 80.9548 66.124 83.0176 67.286C83.4824 67.5469 83.6088 67.9343 83.6455 68.3135V71.1269C83.6455 71.5142 83.2215 71.9627 82.7771 71.7303C79.1407 69.8262 74.3139 69.6182 70.2942 71.7548C69.8825 71.975 69.4544 71.5305 69.4544 71.1432V68.4725C69.4544 68.0444 69.4626 67.3145 69.8947 66.6622L76.9841 56.4892H70.812C70.4288 56.4851 70.123 56.216 70.123 55.8246Z" fill="black"/>
<path fill-rule="evenodd" clip-rule="evenodd" d="M27.0281 72.2889H23.4324C23.09 72.2686 22.8168 72.0076 22.7883 71.6814L22.7924 53.2314C22.7924 52.8604 23.1022 52.5668 23.4854 52.5668H26.8324C27.183 52.5831 27.4643 52.8481 27.4847 53.1865V55.5963H27.554C28.4264 53.2681 30.0693 52.1794 32.283 52.1794C34.5292 52.1794 35.9398 53.2681 36.9467 55.5963C37.8191 53.2681 39.7963 52.1794 41.9121 52.1794C43.4205 52.1794 45.0675 52.7992 46.0704 54.1977C47.2119 55.7512 46.9754 58.0019 46.9754 59.9835L46.9713 71.6243C46.9713 71.9913 46.6615 72.2889 46.2783 72.2889H42.6867C42.328 72.2645 42.0426 71.9791 42.0426 71.6284V61.8468C42.0426 61.0721 42.1119 59.1273 41.9407 58.3933C41.6716 57.1497 40.8685 56.8032 39.8289 56.8032C38.9565 56.8032 38.0515 57.3862 37.6805 58.3159C37.3095 59.2496 37.3462 60.799 37.3462 61.8468V71.6243C37.3462 71.9913 37.0364 72.2889 36.6532 72.2889H33.0616C32.7029 72.2645 32.4175 71.9791 32.4175 71.6284L32.4134 61.8468C32.4134 59.7878 32.7477 56.7624 30.1998 56.7624C27.6151 56.7624 27.717 59.7144 27.717 61.8468V71.6243C27.7211 71.9913 27.4113 72.2889 27.0281 72.2889Z" fill="black"/>
<path fill-rule="evenodd" clip-rule="evenodd" d="M93.454 52.1794C98.7904 52.1794 101.673 56.7624 101.673 62.5848C101.673 68.2157 98.4847 72.6804 93.454 72.6804C88.2195 72.6804 85.3699 68.0974 85.3699 62.3932C85.3699 56.6441 88.2521 52.1794 93.454 52.1794ZM93.4866 55.9428C90.8368 55.9428 90.6696 59.5513 90.6696 61.8061C90.6696 64.0568 90.637 68.8721 93.454 68.8721C96.2384 68.8721 96.3729 64.9905 96.3729 62.6215C96.3729 61.0681 96.3077 59.2047 95.8348 57.7287C95.4353 56.4484 94.6281 55.9428 93.4866 55.9428Z" fill="black"/>
<path fill-rule="evenodd" clip-rule="evenodd" d="M108.591 72.2888H105.011C104.653 72.2643 104.367 71.9789 104.367 71.6283L104.363 53.1741C104.392 52.8357 104.689 52.5707 105.052 52.5707H108.387C108.701 52.587 108.958 52.8031 109.027 53.0885V55.9101H109.096C110.103 53.3862 111.51 52.1833 113.992 52.1833C115.603 52.1833 117.18 52.7664 118.187 54.3566C119.125 55.8326 119.125 58.3157 119.125 60.1016V71.7098C119.084 72.036 118.791 72.2929 118.436 72.2929H114.832C114.498 72.2725 114.233 72.0278 114.192 71.7098V61.6917C114.192 59.6734 114.429 56.7214 111.946 56.7214C111.073 56.7214 110.266 57.3045 109.867 58.1974C109.365 59.3228 109.296 60.4481 109.296 61.6917V71.6242C109.284 71.9911 108.974 72.2888 108.591 72.2888Z" fill="black"/>
<path fill-rule="evenodd" clip-rule="evenodd" d="M121.375 70.8251C121.375 69.8955 122.166 69.1453 123.145 69.1453C124.123 69.1453 124.914 69.8996 124.914 70.8251C124.914 71.7548 124.123 72.505 123.145 72.505C122.166 72.505 121.375 71.7507 121.375 70.8251Z" fill="black"/>
<path d="M159.452 72.293C159.081 72.2808 158.783 71.9913 158.783 71.6284V53.1784C158.808 52.8522 159.085 52.5953 159.427 52.5709H160.748C161.111 52.5709 161.409 52.8359 161.437 53.1784V55.8694C162.375 53.737 164.124 52.0693 166.333 52.0693H166.472H166.606C168.951 52.0693 170.667 53.7981 171.303 56.3098C172.297 53.8308 174.169 52.0693 176.635 52.0693H176.761H176.904C178.649 52.0693 180.325 53.1947 181.197 54.9031C182.037 56.534 182 58.7073 182 60.5339V71.6325C182 71.9872 181.715 72.2726 181.356 72.293H179.778C179.44 72.2808 179.159 72.0402 179.114 71.7222V60.5298C179.114 59.2088 179.179 57.8102 178.645 56.6074C178.095 55.3761 177.051 54.6095 175.93 54.5524C174.674 54.6136 173.525 55.5269 172.779 56.7624C171.804 58.3525 171.841 59.7918 171.841 61.6552V71.7263C171.796 72.0321 171.531 72.2726 171.201 72.293H169.631C169.26 72.2808 168.959 71.9913 168.959 71.6284L168.951 59.7918C168.951 58.7032 168.885 57.4229 168.38 56.4525C167.801 55.3353 166.757 54.6095 165.669 54.5524C164.535 54.6177 163.394 55.4821 162.713 56.4892C161.841 57.7695 161.674 59.3637 161.674 60.9906V71.6243C161.674 71.9791 161.388 72.2645 161.029 72.2849H159.452V72.293Z" fill="black"/>
<path d="M148.62 72.6803C143.52 72.6803 141.241 67.4776 141.241 62.2749C141.241 56.799 143.924 52.0652 149.056 52.0652H149.187H149.325C154.323 52.0652 156.806 57.1129 156.806 62.3157C156.806 67.8282 154.054 72.6803 148.889 72.6803H148.759H148.62ZM148.995 70.1564C150.675 70.1034 151.995 69.0637 152.778 67.3267C153.483 65.7732 153.618 63.9874 153.618 62.279C153.618 60.4156 153.418 58.4748 152.546 56.8846C151.763 55.4942 150.418 54.6095 148.991 54.5564C147.401 54.6135 145.986 55.69 145.269 57.3494C144.633 58.7847 144.429 60.6888 144.429 62.279C144.429 64.0648 144.666 66.1239 145.403 67.6733C146.121 69.1452 147.503 70.1034 148.995 70.1564Z" fill="black"/>
<path d="M132.684 70.0789C134.975 70.0055 136.174 68.1707 136.675 65.7936C136.773 65.496 137.001 65.2677 137.336 65.2677L138.848 65.2595C139.207 65.2799 139.533 65.5531 139.504 65.8833C138.807 69.9281 136.361 72.6803 132.884 72.6803H132.745H132.615C127.547 72.6803 125.366 67.5958 125.366 62.4298C125.366 57.3046 127.58 52.0652 132.647 52.0652H132.782H132.921C136.435 52.0652 138.946 54.7725 139.488 58.8214C139.488 59.1231 139.207 59.3881 138.877 59.4248L137.291 59.4044C136.961 59.3555 136.744 59.0701 136.696 58.752C136.312 56.4932 135.016 54.6951 132.851 54.6258C129.406 54.7359 128.428 58.9763 128.428 62.2341C128.424 65.3818 129.243 69.9648 132.684 70.0789Z" fill="black"/>
<path fill-rule="evenodd" clip-rule="evenodd" d="M60.7057 63.4777C60.7057 64.8804 60.7384 66.0465 60.0331 67.2901C59.4623 68.3013 58.5532 68.9251 57.5463 68.9251C56.1684 68.9251 55.3612 67.8731 55.3612 66.3197C55.3612 63.2576 58.1089 62.7031 60.7057 62.7031V63.4777ZM64.3259 72.24C64.0894 72.452 63.747 72.4683 63.4779 72.3256C62.2834 71.3348 62.0714 70.8741 61.4192 69.9281C59.446 71.9383 58.0477 72.5417 55.4916 72.5417C52.4667 72.5417 50.1104 70.6743 50.1104 66.9394C50.1104 64.02 51.6921 62.0384 53.9425 61.064C55.8911 60.2077 58.6144 60.0528 60.7017 59.8204V59.3515C60.7017 58.4952 60.771 57.484 60.2655 56.746C59.8293 56.0855 58.9894 55.8123 58.2475 55.8123C56.8777 55.8123 55.6588 56.5136 55.3571 57.9692C55.2959 58.2914 55.0595 58.6135 54.7334 58.6298L51.2519 58.2547C50.9583 58.1894 50.6322 57.9529 50.7137 57.5044C51.5168 53.2762 55.3326 52 58.753 52C60.5019 52 62.7889 52.4648 64.1669 53.79C65.9158 55.425 65.7486 57.6023 65.7486 59.9753V65.5776C65.7486 67.2615 66.4498 67.9995 67.1062 68.9088C67.3345 69.235 67.3875 69.6264 67.0939 69.8629C66.3601 70.4786 65.0556 71.6121 64.3381 72.2522L64.3259 72.24Z" fill="black"/>
<path fill-rule="evenodd" clip-rule="evenodd" d="M13.5913 63.4777C13.5913 64.8804 13.6239 66.0465 12.9186 67.2901C12.3479 68.3013 11.4388 68.9251 10.4318 68.9251C9.05391 68.9251 8.24672 67.8731 8.24672 66.3197C8.24672 63.2576 10.9944 62.7031 13.5913 62.7031V63.4777ZM17.2155 72.24C16.979 72.452 16.6325 72.4683 16.3675 72.3256C15.173 71.3348 14.9611 70.8741 14.3088 69.9281C12.3357 71.9383 10.9373 72.5417 8.38533 72.5417C5.35226 72.5417 3 70.6743 3 66.9394C3 64.02 4.58176 62.0384 6.8321 61.064C8.78077 60.2077 11.504 60.0528 13.5913 59.8204V59.3515C13.5913 58.4952 13.6565 57.484 13.1551 56.746C12.7189 56.0855 11.8791 55.8123 11.1371 55.8123C9.76733 55.8123 8.5484 56.5136 8.24672 57.9692C8.18557 58.2914 7.94912 58.6135 7.62298 58.6298L4.14148 58.2547C3.84795 58.1894 3.52182 57.9529 3.60335 57.5044C4.40239 53.2762 8.21818 52 11.6385 52C13.3874 52 15.6745 52.4648 17.0524 53.79C18.8013 55.425 18.6342 57.6023 18.6342 59.9753V65.5776C18.6342 67.2615 19.3354 67.9995 19.9917 68.9088C20.22 69.235 20.273 69.6264 19.9795 69.8629C19.2457 70.4786 17.9411 71.6121 17.2236 72.2522L17.2155 72.24Z" fill="black"/>
</g>
<defs>
<clipPath id="clip0">
<rect width="179" height="35" fill="white" transform="translate(3 52)"/>
</clipPath>
</defs>
</svg>
