<svg width="19" height="19" viewBox="0 0 19 19" fill="none" xmlns="http://www.w3.org/2000/svg">
<path d="M18.5 17.4381C18.5 17.9819 18.05 18.4319 17.5062 18.4319H12.9125V11.4569H15.2562L15.6125 8.73813H12.9125V7.01313C12.9125 6.22563 13.1375 5.68188 14.2625 5.68188H15.7062V3.24438C15.4625 3.20688 14.6 3.13188 13.6063 3.13188C11.525 3.13188 10.1187 4.40688 10.1187 6.73188V8.73813H7.775V11.4569H10.1187V18.4319H1.49375C0.95 18.4319 0.5 17.9819 0.5 17.4381V1.42563C0.5 0.881885 0.95 0.431885 1.49375 0.431885H17.5062C18.05 0.431885 18.5 0.881885 18.5 1.42563V17.4381Z" fill="white"/>
</svg>
