<svg width="19" height="19" viewBox="0 0 19 19" fill="none" xmlns="http://www.w3.org/2000/svg">
<g clip-path="url(#clip0)">
<path d="M9.49981 18.4318C8.19072 18.4136 6.86345 18.4318 5.55436 18.3591C4.08163 18.2864 2.80891 17.7591 1.82709 16.6136C1.33618 16.0318 1.02709 15.3773 0.827086 14.65C0.645268 13.9591 0.608905 13.25 0.572541 12.5591C0.46345 10.45 0.46345 8.32273 0.572541 6.21363C0.608905 5.55909 0.66345 4.90454 0.790723 4.26818C1.13618 2.77727 1.99072 1.68636 3.39072 1.06818C4.08163 0.75909 4.80891 0.613635 5.55436 0.55909C7.68163 0.377272 9.79072 0.449999 11.918 0.468181C12.6089 0.468181 13.318 0.540908 13.9907 0.631817C15.2635 0.813635 16.3907 1.30454 17.2453 2.30454C17.7362 2.88636 18.0635 3.57727 18.1907 4.32273C18.2998 4.92273 18.3725 5.54091 18.4089 6.15909C18.518 8.32273 18.518 10.5045 18.4089 12.6682C18.3725 13.3045 18.318 13.9591 18.1907 14.5773C17.8453 16.1409 16.9362 17.2864 15.4453 17.9227C14.6271 18.2682 13.7544 18.3955 12.8635 18.3955C11.7362 18.3955 10.6089 18.3955 9.49981 18.3955C9.49981 18.4136 9.49981 18.4136 9.49981 18.4318ZM9.64527 2.43182C8.55436 2.43182 7.44527 2.43182 6.35436 2.43182C5.69981 2.43182 5.04527 2.48636 4.40891 2.70454C3.59072 2.97727 3.0089 3.48636 2.718 4.32273C2.53618 4.86818 2.48163 5.41364 2.46345 5.97727C2.42709 7.74091 2.4089 9.52273 2.4089 11.3045C2.4089 12.2318 2.42709 13.1591 2.62709 14.0682C2.8089 14.85 3.22709 15.45 3.95436 15.8318C4.57254 16.1409 5.24527 16.25 5.918 16.2864C8.318 16.3591 10.6998 16.3591 13.0998 16.2864C13.6453 16.2682 14.1907 16.1955 14.6998 15.9955C15.4271 15.7409 15.9544 15.2682 16.2635 14.5591C16.4998 13.9773 16.5544 13.3591 16.5725 12.7591C16.6089 10.9773 16.6271 9.19545 16.6271 7.41364C16.6271 6.50454 16.6089 5.59545 16.4271 4.70454C16.2089 3.68636 15.5907 3.03182 14.6271 2.72273C13.9907 2.50454 13.3544 2.45 12.6998 2.45C11.6635 2.41364 10.6453 2.43182 9.64527 2.43182Z" fill="white"/>
<path d="M13.8634 9.61371C13.8634 11.5046 12.6816 13.2137 10.9179 13.8319C8.89976 14.5592 6.62703 13.6501 5.60885 11.741C4.37249 9.41371 5.35431 6.57735 7.75431 5.50462C9.77249 4.61371 12.2089 5.45007 13.2816 7.41371C13.6634 8.10462 13.8634 8.83189 13.8634 9.61371ZM12.0089 9.61371C12.0089 8.19553 10.8816 7.03189 9.48158 7.03189C8.08158 7.03189 6.93613 8.17735 6.93613 9.61371C6.93613 11.0319 8.08158 12.2137 9.48158 12.2137C10.8634 12.1955 12.0089 11.0501 12.0089 9.61371Z" fill="white"/>
<path d="M14.2452 4.17725C14.8089 4.17725 15.2634 4.63179 15.2634 5.21361C15.2634 5.77725 14.8089 6.23179 14.2452 6.23179C13.6816 6.23179 13.2271 5.77725 13.2271 5.19543C13.2271 4.63179 13.6816 4.17725 14.2452 4.17725Z" fill="white"/>
</g>
<defs>
<clipPath id="clip0">
<rect width="18" height="18" fill="white" transform="translate(0.5 0.431885)"/>
</clipPath>
</defs>
</svg>
