<svg width="18" height="15" viewBox="0 0 18 15" fill="none" xmlns="http://www.w3.org/2000/svg">
<g clip-path="url(#clip0)">
<path d="M17.5125 0.28125C16.8 0.7125 16.0125 1.03125 15.1688 1.2C14.4938 0.46875 13.5188 0 12.4688 0C10.425 0 8.775 1.6875 8.775 3.7875C8.775 4.0875 8.8125 4.36875 8.86875 4.65C5.79375 4.5 3.075 2.98125 1.25625 0.69375C0.9375 1.25625 0.75 1.9125 0.75 2.60625C0.75 3.91875 1.40625 5.08125 2.4 5.75625C1.8 5.7375 1.21875 5.56875 0.73125 5.2875V5.325C0.73125 7.1625 2.00625 8.7 3.69375 9.0375C3.375 9.13125 3.05625 9.16875 2.71875 9.16875C2.475 9.16875 2.25 9.15 2.025 9.09375C2.49375 10.5937 3.8625 11.7 5.475 11.7187C4.21875 12.7312 2.625 13.35 0.88125 13.35C0.58125 13.35 0.28125 13.3312 0 13.2937C1.63125 14.3812 3.58125 15 5.6625 15C12.45 15 16.1625 9.225 16.1625 4.21875C16.1625 4.05 16.1625 3.88125 16.1437 3.73125C16.8562 3.20625 17.4938 2.53125 17.9813 1.7625C17.325 2.0625 16.6125 2.26875 15.8625 2.3625C16.65 1.9125 17.2313 1.1625 17.5125 0.28125Z" fill="white"/>
</g>
<defs>
<clipPath id="clip0">
<rect width="18" height="15" fill="white"/>
</clipPath>
</defs>
</svg>
