<svg width="186" height="138" viewBox="0 0 186 138" fill="none" xmlns="http://www.w3.org/2000/svg">
<g clip-path="url(#clip0)">
<path d="M110.35 72.3711C110.35 68.0205 108.455 64.1958 102.046 64.1958C98.7622 64.1958 96.1522 65.103 94.7208 65.9071L95.7733 69.402C97.0783 68.5979 99.1516 67.9278 101.109 67.9278C104.361 67.9174 104.888 69.7319 104.888 70.8865V71.1649C97.8045 71.1546 93.3316 73.5566 93.3316 78.4535C93.3316 81.4432 95.6154 84.2473 99.5726 84.2473C102.014 84.2473 104.046 83.2989 105.266 81.7731H105.393C105.393 81.7731 106.203 85.0824 110.655 83.8247C110.423 82.4432 110.35 80.969 110.35 79.2061V72.3711ZM105.066 76.9587C105.066 77.3092 105.035 77.6803 104.94 77.9999C104.53 79.3298 103.119 80.4535 101.362 80.4535C99.8989 80.4535 98.7307 79.6391 98.7307 77.9174C98.7307 75.2783 101.699 74.5566 105.066 74.5669V76.9587Z" fill="#0078BF"/>
<path d="M0 58.2783C0 58.2783 4.63079 76.8556 5.36751 79.8659C6.23052 83.3814 7.78815 84.6804 12.2611 83.8041L15.1448 72.2886C15.8815 69.4227 16.3656 67.3917 16.8392 64.4742H16.9234C17.2497 67.4123 17.7233 69.433 18.3232 72.2989C18.3232 72.2989 19.502 77.5257 20.1019 80.2783C20.7017 83.0206 22.3857 84.7526 26.7744 83.8144L33.6574 58.2783H28.1005L25.7535 69.3196C25.1221 72.5361 24.5537 75.0412 24.1012 77.9897H24.0275C23.6276 75.0824 23.1119 72.6701 22.4699 69.5361L20.0177 58.2886H14.2186L11.598 69.2577C10.8508 72.5876 10.1667 75.2783 9.72466 78.1237H9.66152C9.20896 75.4536 8.60907 72.0721 7.95654 68.8453C7.95654 68.8453 6.39891 61 5.85164 58.2989" fill="#0078BF"/>
<path d="M49.4652 72.3711C49.4652 68.0205 47.5708 64.1958 41.1614 64.1958C37.8672 64.1958 35.2571 65.103 33.8363 65.9071L34.8782 69.402C36.1833 68.5979 38.2566 67.9278 40.2141 67.9278C43.4662 67.9174 43.9925 69.7319 43.9925 70.8865V71.1649C36.9094 71.1546 32.4365 73.5566 32.4365 78.4535C32.4365 81.4432 34.7203 84.2473 38.6776 84.2473C41.1193 84.2473 43.1505 83.2989 44.3713 81.7731H44.4871C44.4871 81.7731 45.2975 85.0824 49.7599 83.8247C49.5284 82.4432 49.4442 80.969 49.4442 79.2061L49.4652 72.3711ZM44.1819 76.9587C44.1819 77.3092 44.1503 77.6803 44.0556 77.9999C43.6451 79.3298 42.2454 80.4535 40.4878 80.4535C39.0249 80.4535 37.8567 79.6391 37.8567 77.9174C37.8567 75.2783 40.814 74.5566 44.1924 74.5669V76.9587H44.1819Z" fill="#0078BF"/>
<path d="M58.2953 78.3917V58.2783H53.0015V83.8144H58.2953" fill="#0078BF"/>
<path d="M127.547 58.2783V77.1134C127.547 79.7113 128.041 81.5257 129.115 82.6391C130.041 83.6082 131.578 84.2371 133.419 84.2371C134.988 84.2371 136.524 83.9484 137.25 83.6804L137.177 79.6288C136.64 79.7629 136.019 79.8659 135.167 79.8659C133.367 79.8659 132.756 78.7319 132.756 76.402V69.1958H137.366V64.3196H132.756V58.2783" fill="#0078BF"/>
<path d="M113.886 64.639V83.8246H119.348V73.9999C119.348 73.4741 119.38 73.0102 119.464 72.5875C119.874 70.5256 121.474 69.2164 123.779 69.2164C124.41 69.2164 124.863 69.2782 125.347 69.3504V64.3195C124.937 64.237 124.663 64.2061 124.147 64.2061C122.106 64.2061 119.79 65.4947 118.822 68.2576H118.675V64.639" fill="#0078BF"/>
<path d="M62 64.6391V83.8247H67.3255V72.5669C67.3255 72.0412 67.3886 71.4845 67.578 70.9999C68.0201 69.8659 69.0936 68.536 70.8091 68.536C72.9561 68.536 73.9559 70.3092 73.9559 72.8865V83.8144H79.2708V72.4329C79.2708 71.9278 79.3445 71.3195 79.4918 70.8762C79.9233 69.5876 81.0915 68.536 82.6807 68.536C84.8593 68.536 85.9013 70.2886 85.9013 73.2989V83.804H91.2161V72.5154C91.2161 66.5566 88.1219 64.1958 84.6383 64.1958C83.0912 64.1958 81.8704 64.5772 80.7758 65.237C79.8496 65.7937 79.0182 66.5876 78.292 67.6288H78.2183C77.3764 65.5566 75.3978 64.1958 72.8193 64.1958C69.504 64.1958 68.0201 65.835 67.115 67.237H67.0308V64.6288" fill="#0078BF"/>
<path d="M165.982 61.8144C167.035 61.8144 167.898 61.2783 168.014 60.5876L169.055 49.0722C169.055 47.9381 167.698 47 165.982 47C164.277 47 162.92 47.9381 162.92 49.0722L163.962 60.5876C164.067 61.2783 164.94 61.8144 165.982 61.8144Z" fill="#FCBD1B"/>
<path d="M159.636 65.4125C160.162 64.5259 160.12 63.5156 159.562 63.0723L149.901 56.4331C148.901 55.8661 147.396 56.5466 146.533 58.0002C145.681 59.4538 145.828 61.0723 146.828 61.6393L157.521 66.5156C158.205 66.763 159.11 66.2888 159.636 65.4125Z" fill="#FCBD1B"/>
<path d="M172.339 65.4022C172.865 66.2888 173.77 66.763 174.444 66.5156L185.147 61.6393C186.158 61.0723 186.295 59.4538 185.442 58.0002C184.59 56.5466 183.085 55.8661 182.074 56.4331L172.413 63.0723C171.855 63.5156 171.823 64.5156 172.339 65.4022Z" fill="#FCBD1B"/>
<path d="M165.982 76.1855C167.035 76.1855 167.898 76.7216 168.014 77.4124L169.055 88.9278C169.055 90.0618 167.698 91 165.982 91C164.277 91 162.92 90.0618 162.92 88.9278L163.962 77.4124C164.067 76.7216 164.94 76.1855 165.982 76.1855Z" fill="#FCBD1B"/>
<path d="M172.339 72.5979C172.865 71.701 173.77 71.2371 174.444 71.4845L185.147 76.3608C186.158 76.9278 186.295 78.5464 185.442 80C184.59 81.4433 183.085 82.134 182.074 81.567L172.413 74.9278C171.855 74.4845 171.823 73.4845 172.339 72.5979Z" fill="#FCBD1B"/>
<path d="M159.636 72.5981C160.162 73.4847 160.12 74.495 159.562 74.9383L149.901 81.5671C148.901 82.1341 147.396 81.4537 146.533 80.0001C145.681 78.5465 145.828 76.928 146.828 76.3506L157.521 71.4744C158.205 71.2372 159.11 71.7012 159.636 72.5981Z" fill="#FCBD1B"/>
</g>
<defs>
<clipPath id="clip0">
<rect width="186" height="44" fill="white" transform="translate(0 47)"/>
</clipPath>
</defs>
</svg>
